<svg 
 xmlns="http://www.w3.org/2000/svg"
 xmlns:xlink="http://www.w3.org/1999/xlink"
 width="38px" height="38px">
<path fill-rule="evenodd"  fill="rgb(221, 231, 248)"
 d="M18.885,0.403 C8.589,0.403 0.241,8.751 0.241,19.047 C0.241,29.343 8.589,37.692 18.885,37.692 C29.182,37.692 37.530,29.343 37.530,19.047 C37.530,8.751 29.182,0.403 18.885,0.403 ZM22.766,29.299 C21.808,29.676 21.043,29.965 20.470,30.163 C19.899,30.362 19.234,30.462 18.478,30.462 C17.316,30.462 16.412,30.176 15.768,29.612 C15.124,29.044 14.804,28.326 14.804,27.454 C14.804,27.114 14.827,26.766 14.874,26.413 C14.924,26.060 15.001,25.662 15.106,25.216 L16.308,20.973 C16.414,20.563 16.505,20.176 16.578,19.817 C16.650,19.454 16.685,19.121 16.685,18.818 C16.685,18.278 16.573,17.899 16.350,17.687 C16.124,17.473 15.700,17.369 15.067,17.369 C14.757,17.369 14.439,17.414 14.112,17.511 C13.788,17.610 13.507,17.700 13.277,17.789 L13.594,16.482 C14.380,16.161 15.133,15.887 15.852,15.659 C16.570,15.429 17.248,15.315 17.888,15.315 C19.042,15.315 19.932,15.596 20.559,16.152 C21.182,16.709 21.496,17.434 21.496,18.324 C21.496,18.509 21.475,18.834 21.432,19.298 C21.388,19.763 21.308,20.187 21.191,20.579 L19.996,24.809 C19.899,25.149 19.812,25.536 19.733,25.969 C19.655,26.404 19.617,26.735 19.617,26.960 C19.617,27.520 19.742,27.904 19.995,28.109 C20.245,28.312 20.682,28.415 21.299,28.415 C21.592,28.415 21.919,28.363 22.289,28.260 C22.655,28.160 22.920,28.069 23.087,27.992 L22.766,29.299 ZM22.555,12.129 C21.999,12.646 21.327,12.905 20.542,12.905 C19.761,12.905 19.084,12.646 18.522,12.129 C17.963,11.611 17.681,10.981 17.681,10.245 C17.681,9.511 17.965,8.880 18.522,8.358 C19.084,7.834 19.761,7.573 20.542,7.573 C21.327,7.573 21.999,7.834 22.555,8.358 C23.112,8.880 23.392,9.511 23.392,10.245 C23.392,10.983 23.112,11.611 22.555,12.129 Z"/>
</svg>